<svg width="1784" height="717" viewBox="0 0 1784 717" fill="none" xmlns="http://www.w3.org/2000/svg">
<path d="M49.5209 265.5L121.021 221L39.5209 556.5C1.1244 515.286 -4.85485 492.187 3.02088 451L49.5209 265.5Z" fill="#00084F"/>
<path d="M149.021 205L228.021 162L110.021 623.5C77.7903 595.228 55.1894 580.987 68.521 536.5L149.021 205Z" fill="#00084F"/>
<path d="M255.521 148.5L338.521 108H694.521C663.09 189.243 640.728 216.904 588.021 218H316.521L287.021 336H477.521C446.59 426.052 424.034 456.532 370.021 458H255.521L196.021 716.5C150.88 678.561 126.144 657.279 136.021 618.5L255.521 148.5Z" fill="#00084F"/>
<path d="M255.521 148.5L338.521 108H694.521C663.09 189.243 640.728 216.904 588.021 218H316.521L287.021 336H477.521C446.59 426.052 424.034 456.532 370.021 458H255.521L196.021 716.5C150.88 678.561 126.144 657.279 136.021 618.5L255.521 148.5Z" fill="#00084F"/>
<path d="M106.521 0H238.521H749.021C742.078 47.4938 730.678 66.2727 700.521 89.5H336.021L258.521 129.5L266.521 77H277.521L258.521 51.5L236.521 77H247.021L233.021 138L151.521 184L158.021 138H168.521L151.521 110.5L127.521 138H140.021L127.521 197L51.021 244L106.521 0Z" fill="#97E3FD"/>
<path d="M529.584 488V308.392H721.501V341.048H569.776V390.786H701.907V423.442H569.776V488H529.584ZM749.139 488V308.392H789.331V488H749.139ZM824.45 488V308.392H865.144L992.251 437.509V308.392H1032.44V488H991.749L864.642 358.632V488H824.45ZM1158.24 489.256C1126.25 489.256 1101.47 481.636 1083.88 466.397C1066.3 450.99 1057.51 428.214 1057.51 398.07C1057.51 368.094 1066.3 345.486 1083.88 330.246C1101.47 314.839 1126.84 307.136 1160 307.136H1205.21C1238.37 307.136 1263.74 314.839 1281.33 330.246C1298.91 345.486 1307.7 368.094 1307.7 398.07C1307.7 428.214 1298.91 450.99 1281.33 466.397C1263.74 481.636 1238.79 489.256 1206.47 489.256H1158.24ZM1162.76 339.792C1144.17 339.792 1129.68 343.141 1119.3 349.84C1108.92 356.539 1102.39 367.173 1099.71 381.742H1265.5C1262.82 367.173 1256.29 356.539 1245.91 349.84C1235.52 343.141 1221.04 339.792 1202.45 339.792H1162.76ZM1163.51 456.6H1202.45C1221.2 456.6 1235.69 453.251 1245.91 446.552C1256.29 439.853 1262.82 429.135 1265.5 414.398H1099.71C1102.39 429.135 1108.92 439.853 1119.3 446.552C1129.68 453.251 1144.42 456.6 1163.51 456.6ZM1332.74 488V308.392H1483.21C1501.79 308.392 1516.2 313.081 1526.41 322.459C1536.8 331.837 1541.99 346.072 1541.99 365.163C1541.99 381.407 1538.22 394.135 1530.68 403.346C1523.15 412.556 1512.43 418.334 1498.53 420.678L1539.98 488H1494.26L1455.83 421.934H1372.93V488H1332.74ZM1478.43 341.048H1372.93V389.027L1478.43 389.278C1485.8 389.278 1491.41 387.436 1495.26 383.752C1499.28 380.068 1501.29 373.871 1501.29 365.163C1501.29 356.287 1499.28 350.091 1495.26 346.574C1491.41 342.89 1485.8 341.048 1478.43 341.048ZM1557.09 488L1637.98 308.392H1700.02L1780.91 488H1737.2L1720.12 450.069H1617.88L1600.8 488H1557.09ZM1632.45 417.413H1705.55L1670.63 339.792H1667.37L1632.45 417.413Z" fill="#00084F"/>
<path d="M638.576 567.6C630.566 567.6 624.438 565.76 620.191 562.079C615.944 558.357 613.82 552.856 613.82 545.575C613.82 538.335 615.944 532.854 620.191 529.132C624.438 525.411 630.566 523.571 638.576 523.611L660.418 523.732V531.499H639.243C633.984 531.499 630.081 532.611 627.533 534.836C624.984 537.061 623.71 540.64 623.71 545.575C623.71 550.51 624.984 554.11 627.533 556.375C630.081 558.6 633.984 559.713 639.243 559.713H661.025V567.6H638.576ZM666.176 567.297V523.914H674.974V567.297H666.176ZM689.953 567.297C686.677 567.297 684.169 566.468 682.43 564.809C680.69 563.151 679.821 560.784 679.821 557.71C679.821 554.677 680.69 552.33 682.43 550.672C684.169 549.014 686.677 548.184 689.953 548.184H713.252V546.728C713.252 544.261 712.039 543.027 709.612 543.027H683.886V536.049H711.917C715.598 536.049 718.207 536.899 719.744 538.598C721.282 540.256 722.05 542.602 722.05 545.636V567.297H689.953ZM691.531 560.319H713.252V555.162H691.531C690.762 555.162 690.155 555.405 689.711 555.89C689.306 556.335 689.104 556.942 689.104 557.71C689.104 558.479 689.306 559.106 689.711 559.591C690.155 560.077 690.762 560.319 691.531 560.319ZM728.747 567.297V536.049H752.652C756.172 536.049 758.76 536.939 760.419 538.719C762.077 540.458 762.906 542.764 762.906 545.636V552.128H753.987V546.728C753.987 544.301 752.774 543.088 750.347 543.088H737.666V567.297H728.747ZM767.735 567.297V536.049H776.533V567.297H767.735ZM767.674 530.892V524.036H776.593V530.892H767.674ZM799.461 567.297C795.941 567.297 793.353 566.427 791.694 564.688C790.036 562.908 789.207 560.582 789.207 557.71V543.027H780.166V536.049H789.207V526.463H798.004V536.049H810.989V543.027H798.004V556.618C798.004 559.086 799.218 560.319 801.645 560.319H812.688V567.297H799.461ZM824.249 580.949V573.971H842.573C845 573.971 846.213 572.737 846.213 570.27V567.297H827.465C823.905 567.297 821.296 566.407 819.638 564.627C818.02 562.847 817.211 560.542 817.211 557.71V536.049H826.009V556.679C826.009 559.106 827.222 560.319 829.649 560.319H845.91V536.049H855.011V571.362C855.011 574.234 854.182 576.54 852.523 578.279C850.865 580.059 848.276 580.949 844.757 580.949H824.249ZM882.922 567.297V536.049H891.72V567.297H882.922ZM882.861 530.892V524.036H891.78V530.892H882.861ZM897.355 567.6V560.623H927.086C928.785 560.623 929.634 559.672 929.634 557.771C929.634 555.91 928.785 554.98 927.086 554.98H907.852C904.252 554.98 901.522 554.171 899.661 552.553C897.8 550.894 896.87 548.528 896.87 545.454C896.87 542.339 897.8 539.953 899.661 538.294C901.562 536.595 904.293 535.746 907.852 535.746H935.52V542.724H908.277C906.538 542.724 905.668 543.573 905.668 545.272C905.668 546.121 905.911 546.789 906.396 547.274C906.881 547.76 907.508 548.002 908.277 548.002H928.664C931.819 548.002 934.225 548.832 935.884 550.49C937.583 552.108 938.432 554.474 938.432 557.589C938.432 560.744 937.583 563.211 935.884 564.991C934.185 566.731 931.778 567.6 928.664 567.6H897.355ZM981.07 567.297C977.551 567.297 974.962 566.427 973.304 564.688C971.645 562.908 970.816 560.582 970.816 557.71V543.027H961.775V536.049H970.816V526.463H979.614V536.049H992.598V543.027H979.614V556.618C979.614 559.086 980.827 560.319 983.254 560.319H994.297V567.297H981.07ZM998.82 567.297V523.914H1007.62V536.049H1026.06C1029.62 536.049 1032.21 536.939 1033.83 538.719C1035.49 540.458 1036.32 542.764 1036.32 545.636V567.297H1027.52V546.667C1027.52 544.24 1026.31 543.027 1023.88 543.027H1007.62V567.297H998.82ZM1058.69 567.6C1053.26 567.6 1049.04 566.265 1046 563.596C1042.97 560.886 1041.45 556.922 1041.45 551.703C1041.45 546.445 1042.97 542.481 1046 539.811C1049.04 537.101 1053.26 535.746 1058.69 535.746H1073.85C1077.41 535.746 1080.12 536.595 1081.98 538.294C1083.89 539.953 1084.84 542.339 1084.84 545.454C1084.84 551.805 1081.18 554.98 1073.85 554.98H1050.92C1051.77 558.742 1054.36 560.623 1058.69 560.623H1083.26V567.6H1058.69ZM1058.69 542.724C1054.52 542.724 1051.95 544.483 1050.98 548.002H1073.43C1074.24 548.002 1074.87 547.76 1075.31 547.274C1075.8 546.789 1076.04 546.121 1076.04 545.272C1076.04 543.573 1075.17 542.724 1073.43 542.724H1058.69ZM1111.52 567.297V536.049H1138.76C1142.32 536.049 1144.91 536.939 1146.53 538.719C1148.19 540.458 1149.02 542.764 1149.02 545.636V567.297H1140.22V546.667C1140.22 544.24 1139 543.027 1136.58 543.027H1120.32V567.297H1111.52ZM1171.38 567.6C1165.96 567.6 1161.74 566.265 1158.7 563.596C1155.67 560.886 1154.15 556.922 1154.15 551.703C1154.15 546.445 1155.67 542.481 1158.7 539.811C1161.74 537.101 1165.96 535.746 1171.38 535.746H1186.55C1190.11 535.746 1192.82 536.595 1194.68 538.294C1196.58 539.953 1197.53 542.339 1197.53 545.454C1197.53 551.805 1193.87 554.98 1186.55 554.98H1163.62C1164.47 558.742 1167.06 560.623 1171.38 560.623H1195.96V567.6H1171.38ZM1171.38 542.724C1167.22 542.724 1164.65 544.483 1163.68 548.002H1186.13C1186.94 548.002 1187.56 547.76 1188.01 547.274C1188.49 546.789 1188.74 546.121 1188.74 545.272C1188.74 543.573 1187.87 542.724 1186.13 542.724H1171.38ZM1204.46 567.297L1201.49 536.049H1210.35L1212.41 559.773L1221.81 555.526V536.049H1230.61V555.587L1240.02 559.773L1242.08 536.049H1250.94L1247.96 567.297H1239.65L1226.18 561.351L1212.77 567.297H1204.46ZM1300.55 567.6C1292.54 567.6 1286.41 565.76 1282.16 562.079C1277.91 558.357 1275.79 552.856 1275.79 545.575C1275.79 538.335 1277.91 532.854 1282.16 529.132C1286.41 525.411 1292.54 523.571 1300.55 523.611L1322.39 523.732V531.499H1301.21C1295.95 531.499 1292.05 532.611 1289.5 534.836C1286.95 537.061 1285.68 540.64 1285.68 545.575C1285.68 550.51 1286.95 554.11 1289.5 556.375C1292.05 558.6 1295.95 559.713 1301.21 559.713H1323V567.6H1300.55ZM1338.1 567.297C1334.54 567.297 1331.93 566.407 1330.27 564.627C1328.65 562.847 1327.84 560.542 1327.84 557.71V536.049H1336.64V556.679C1336.64 559.106 1337.85 560.319 1340.28 560.319H1352.9C1355.33 560.319 1356.54 559.106 1356.54 556.679V536.049H1365.34V557.71C1365.34 560.542 1364.51 562.847 1362.85 564.627C1361.23 566.407 1358.65 567.297 1355.09 567.297H1338.1ZM1371.7 567.297V536.049H1395.6C1399.12 536.049 1401.71 536.939 1403.37 538.719C1405.03 540.458 1405.86 542.764 1405.86 545.636V552.128H1396.94V546.728C1396.94 544.301 1395.72 543.088 1393.3 543.088H1380.62V567.297H1371.7ZM1410.69 567.297V536.049H1434.59C1438.11 536.049 1440.7 536.939 1442.36 538.719C1444.02 540.458 1444.84 542.764 1444.84 545.636V552.128H1435.93V546.728C1435.93 544.301 1434.71 543.088 1432.29 543.088H1419.6V567.297H1410.69ZM1466.88 567.6C1461.46 567.6 1457.23 566.265 1454.2 563.596C1451.16 560.886 1449.64 556.922 1449.64 551.703C1449.64 546.445 1451.16 542.481 1454.2 539.811C1457.23 537.101 1461.46 535.746 1466.88 535.746H1482.05C1485.6 535.746 1488.31 536.595 1490.18 538.294C1492.08 539.953 1493.03 542.339 1493.03 545.454C1493.03 551.805 1489.37 554.98 1482.05 554.98H1459.11C1459.96 558.742 1462.55 560.623 1466.88 560.623H1491.45V567.6H1466.88ZM1466.88 542.724C1462.71 542.724 1460.14 544.483 1459.17 548.002H1481.62C1482.43 548.002 1483.06 547.76 1483.5 547.274C1483.99 546.789 1484.23 546.121 1484.23 545.272C1484.23 543.573 1483.36 542.724 1481.62 542.724H1466.88ZM1498.5 567.297V536.049H1525.74C1529.3 536.049 1531.89 536.939 1533.51 538.719C1535.17 540.458 1535.99 542.764 1535.99 545.636V567.297H1527.2V546.667C1527.2 544.24 1525.98 543.027 1523.56 543.027H1507.3V567.297H1498.5ZM1558.36 567.6C1552.94 567.6 1548.72 566.265 1545.68 563.596C1542.65 560.886 1541.13 556.922 1541.13 551.703C1541.13 546.445 1542.65 542.481 1545.68 539.811C1548.72 537.101 1552.94 535.746 1558.36 535.746H1578.69V542.724H1558.36C1555.73 542.724 1553.71 543.452 1552.3 544.908C1550.92 546.364 1550.23 548.629 1550.23 551.703C1550.23 554.737 1550.92 556.982 1552.3 558.438C1553.71 559.895 1555.73 560.623 1558.36 560.623H1579.3V567.6H1558.36ZM1590.86 580.949V573.971H1609.18C1611.61 573.971 1612.82 572.737 1612.82 570.27V567.297H1594.08C1590.52 567.297 1587.91 566.407 1586.25 564.627C1584.63 562.847 1583.82 560.542 1583.82 557.71V536.049H1592.62V556.679C1592.62 559.106 1593.83 560.319 1596.26 560.319H1612.52V536.049H1621.62V571.362C1621.62 574.234 1620.79 576.54 1619.13 578.279C1617.48 580.059 1614.89 580.949 1611.37 580.949H1590.86Z" fill="#00084F"/>
</svg>
